<svg width="32" height="32" viewBox="0 0 32 32" fill="none" xmlns="http://www.w3.org/2000/svg">
<path fill-rule="evenodd" clip-rule="evenodd" d="M2.06195 14.9465C2.14114 14.6969 2.2771 14.2716 2.33936 13.9653V13.8236C2.29403 13.7782 2.24871 13.6818 2.19775 13.6365C1.78437 13.6365 1.31422 13.8236 0.94053 14.0107C0.849887 13.92 0.798921 13.8576 0.787632 13.6989C0.708443 13.5855 0.702633 13.506 0.702633 13.3644C0.657311 13.2679 0.612156 13.1715 0.662956 13.0752C0.61199 12.9787 0.566668 12.8428 0.521347 12.7916C0.662956 12.6557 1.05375 12.4458 1.23487 12.4458C1.44455 12.3777 1.64841 12.2869 1.87485 12.185C2.3279 12.0886 2.57144 12.066 2.9961 11.9015C3.46625 11.8392 3.81156 11.8277 4.25896 11.7653C4.42315 11.7597 5.00652 11.7653 5.24442 11.7653C5.48231 11.8165 5.7994 11.8787 5.94665 11.9015C6.19584 12.0036 6.45631 12.1679 6.64889 12.3268C6.69421 12.3721 6.97162 12.7463 6.97162 12.7918C7.05097 12.9902 7.09048 12.9336 7.09048 13.1944L7.06226 13.5289C6.97162 13.8805 6.915 13.8578 6.78485 14.1526C6.64889 14.334 6.60356 14.385 6.46196 14.5268C6.36567 14.5721 6.32035 14.6232 6.22406 14.7139C6.08245 14.7423 6.00326 14.9634 5.85036 15.0371C5.79375 15.1561 5.69182 15.0995 5.74279 15.2411C5.78794 15.2411 5.89569 15.2695 5.94665 15.2695C6.03729 15.3376 6.34873 15.4169 6.50728 15.5078C6.75082 15.6608 6.76775 15.5929 6.92629 15.9728C7.05645 16.0918 7.06209 16.3981 7.0679 16.534C7.0679 16.761 7.01694 16.9253 6.97162 17.1465C6.92065 17.254 6.83001 17.3563 6.80178 17.4526C6.84711 17.4076 7.15855 17.2373 7.20968 17.192C7.20968 17.1466 7.25483 17.0502 7.30015 17.0502C7.32854 16.9199 7.36805 16.8913 7.39644 16.8232H7.55498C7.55498 17.0331 7.4587 17.1519 7.44176 17.3336C7.36805 17.4812 7.21516 17.7363 7.14726 17.9007C6.99436 18.1163 6.71114 18.4224 6.61485 18.5586C6.34857 18.7058 5.92972 19.1934 5.21603 19.375C5.02345 19.426 4.56476 19.6074 4.36654 19.6529C4.07203 19.8005 3.53398 19.9363 3.22819 19.9591L2.48063 20.237C2.34483 20.2315 2.26548 20.22 2.10694 20.1916C1.69921 20.1294 1.56889 19.9991 1.41035 19.9083C1.31406 19.9592 0.753433 19.7721 0.66279 19.6758C0.611824 19.6758 0.566502 19.6758 0.470215 19.6305C0.470215 19.3244 0.583436 19.3925 0.611824 19.0692C0.759077 18.8308 0.838266 18.4794 0.895042 18.2242C1.06487 17.8329 1.12165 17.3737 1.17245 17.1013C1.29696 16.9424 1.45002 16.5287 1.45567 16.3984C1.55196 16.3471 1.71614 15.8029 1.73889 15.6952C1.84679 15.4795 1.99969 15.1791 2.06195 14.9465V14.9465ZM3.46642 15.2244C3.46642 15.4002 3.37013 15.5307 3.37013 15.7065C3.22288 15.8595 2.95111 16.4661 2.89998 16.6705C2.82063 16.9312 2.75273 17.2376 2.65644 17.521C2.56015 17.8442 2.46951 18.1676 2.41854 18.4908C2.36758 18.5817 2.29968 18.6949 2.29968 18.7855L2.39032 18.8821C3.04159 18.7968 2.79805 18.712 3.21142 18.6437C3.45496 18.5189 3.55125 18.5984 3.88527 18.3658C4.02123 18.3886 4.6725 18.0879 4.67815 18.0879C4.77443 18.071 4.97249 17.9689 5.13684 17.8045C5.34651 17.6852 5.73714 17.4813 5.80521 17.2429C5.99778 17.0105 5.99778 16.8234 5.94682 16.6816C5.96939 16.3755 5.70892 16.3074 5.56731 16.1655C5.37474 16.1655 5.25023 16.1145 5.05765 16.1145C4.61025 16.1258 4.57638 16.1599 4.35558 16.2108C4.2593 16.2561 3.93076 16.3983 3.78915 16.3983C3.78915 16.3529 3.6985 16.2563 3.6985 16.2563C3.68721 15.9729 3.68157 15.9616 3.6306 15.7178C3.72108 15.6724 3.74382 15.6497 3.84011 15.5532C3.97608 15.5021 4.25913 15.3889 4.41203 15.3321L4.63282 15.23C4.67815 15.1847 4.80282 15.0995 4.83104 15.0371C4.98394 14.9124 5.03491 14.8671 5.12538 14.7195C5.33506 14.504 5.44828 14.2715 5.53876 14.0278C5.7144 13.7726 5.5615 13.4721 5.52182 13.3587C5.32925 13.2395 5.22732 13.1547 4.98378 13.1374C4.56476 13.0468 4.67798 13.041 4.17396 13.0865C3.93607 13.0865 3.69817 13.2168 3.51141 13.1715C2.99029 13.3076 2.8432 13.4379 2.81482 13.404C2.76966 13.404 2.62805 13.5003 2.57692 13.5458L2.894 13.6195C3.02997 13.5968 3.08658 13.7158 3.22819 13.7158C3.61898 13.8576 3.54544 13.7895 3.74349 14.0165C3.74349 14.1073 3.72656 14.2036 3.72656 14.2489C3.69302 14.6516 3.65335 14.8161 3.46642 15.2244V15.2244ZM8.37808 16.7251C8.50259 16.3792 8.55936 16.1979 8.65549 15.8406C8.5592 15.9427 8.44598 16.0563 8.24211 16.2659C8.06083 16.4585 7.83438 16.6174 7.68149 16.7251L7.57391 16.6969C7.80616 16.4472 7.93067 16.3337 7.98728 16.2546C8.07793 16.1127 8.3384 15.7442 8.47437 15.6534C8.47437 15.54 8.72919 15.3017 8.75177 15.1374C8.96128 14.9559 9.02918 14.8311 9.02918 14.7121C9.24433 14.5193 9.27837 14.2982 9.52191 14.2982C9.7598 14.3264 9.95221 14.3832 10.343 14.4342C10.5072 14.5759 10.3883 14.5362 10.292 14.8538C10.0711 15.2111 10.1675 15.2451 9.99189 15.5967C9.99189 15.6421 9.94092 15.8066 9.94092 15.8066C10.0598 15.693 10.5753 14.99 10.5753 14.9956C10.8132 14.7233 11.2322 14.2301 11.3738 14.2698C11.5947 14.3151 11.8891 14.3832 12.127 14.5759C12.127 14.6212 12.076 14.7574 12.076 14.8085C12.0931 14.8482 11.9854 15.2054 11.9288 15.4832C11.9739 15.6363 12.0307 15.6477 12.3196 15.2733C12.5008 15.0804 12.9029 14.7175 12.9652 14.5701C13.1692 14.298 13.3842 14.0088 13.5711 13.8216C13.6674 13.8216 13.8543 13.8669 13.9448 13.8669C13.9901 13.9178 14.0411 13.9178 14.0864 13.9178C14.1769 14.0087 14.4601 13.9632 14.6471 14.1504V14.434C14.5338 14.8025 14.4376 15.1088 14.3695 15.2733C14.2109 15.6588 14.0468 16.0956 13.9335 16.4869C13.8713 16.7193 13.7581 17.1332 13.6673 17.3316C13.6673 17.3316 13.7579 17.519 13.8032 17.519L13.9901 17.4224C14.228 17.3374 14.3526 17.0767 14.3695 17.0482C14.4601 17.0029 14.5055 16.9574 14.5564 16.8611C14.8112 16.7135 15.5248 15.3527 15.6211 15.1203C15.7627 14.7461 15.9383 14.2811 16.0799 13.9635C16.1081 13.8217 16.3178 13.9067 16.4425 13.9238C16.8049 13.9635 17.1671 14.0316 17.0823 14.1337L16.8955 14.8538C16.7765 15.0921 16.5273 15.8632 16.4765 16.1184C16.2668 16.4416 16.233 16.6514 16.0517 17.0484V17.1901C16.318 17.0316 16.5388 16.6969 16.6802 16.5155C16.9183 16.2888 17.037 16.1808 17.037 16.1185C17.2634 15.8746 17.456 15.6648 17.456 15.5572C17.5295 15.5005 17.6429 15.4721 17.6429 15.4721C17.6881 15.5685 17.6826 15.6251 17.6429 15.6988C17.541 15.9427 17.4389 16.073 17.3202 16.3338C17.2975 16.4645 17.1671 16.6685 17.071 16.85C16.9691 16.9748 16.7483 17.298 16.567 17.5929C16.4651 17.7064 16.1593 18.0637 16.097 18.1259C15.8648 18.1259 15.5533 17.9842 15.2701 17.9671C15.0493 17.8309 15.0777 17.9389 14.8342 17.7518C14.8793 17.6609 14.868 17.5193 14.9304 17.3772C15.0209 17.2582 15.0946 17.1448 15.1172 17.003C14.9756 17.0993 14.3697 17.7518 14.3697 17.8026C14.2734 17.7516 13.5711 18.3638 13.4295 18.4092C13.1974 18.3129 12.9142 18.2674 12.7783 18.035C12.5858 18.1258 12.3989 17.9387 12.2629 17.8026C12.3083 17.7063 12.3367 17.4511 12.3989 17.2355C12.4896 16.9916 12.6141 16.6116 12.6821 16.4019C12.6821 16.3906 12.8689 15.8521 12.835 15.8916L12.9482 15.4721C12.852 15.5174 12.5292 15.8634 12.4725 15.9709C12.4725 15.9709 11.8834 16.4927 11.8834 16.5893C11.793 16.7537 11.7362 16.7366 11.6117 16.7706C11.5154 16.7706 11.3228 16.7253 11.2322 16.6798L10.7735 16.544L10.7906 16.4079C10.7906 16.1355 10.9265 15.9201 10.9265 15.6537C10.8359 15.7501 10.6093 15.943 10.4961 16.0847C9.98077 16.5156 10.0543 16.334 9.73158 16.7821C9.67497 16.9637 9.57868 17.1563 9.47675 17.4795C9.47675 17.4795 9.17096 18.2224 9.21628 18.364C9.13128 18.5682 9.03516 18.7668 8.96145 18.971C8.65565 18.9597 8.4913 18.9597 8.28743 18.9256C8.19115 18.971 7.93067 18.8743 7.77777 18.8348C7.8231 18.5401 7.86277 18.5287 7.891 18.3187C7.92503 18.2451 8.10631 17.5648 8.10067 17.5363C8.26486 17.1334 8.28743 17.0143 8.37808 16.7251V16.7251ZM22.9447 15.7767C23.2562 15.4648 23.0863 15.6293 23.4941 15.1359C23.8623 14.8014 23.9302 14.6993 24.1282 14.4669C24.3095 14.3535 24.3208 14.2117 24.4455 14.3138C24.5134 14.3535 24.2981 14.722 24.2813 14.688C24.1282 14.8581 23.9868 15.0906 23.7773 15.3969C23.6753 15.533 23.5903 15.6917 23.3865 15.9696C23.2392 16.1227 23.0184 16.4574 22.9278 16.6162C22.4804 17.104 22.4691 17.3646 22.2822 17.4214C22.1404 17.4214 22.0499 17.3761 21.9536 17.3761C21.7723 17.0927 21.6704 17.2343 21.4383 17.2343C21.2911 17.1435 21.0645 16.9564 20.974 16.9564C20.974 16.9111 20.9228 16.8146 20.9228 16.7693C21.0248 16.5709 20.968 16.4064 21.0645 16.208C21.1382 15.9756 21.144 15.9528 21.2343 15.7827C21.3928 15.4141 21.4156 15.3744 21.4891 15.227C21.5627 15.0456 21.5515 14.9719 21.6873 14.7167C21.7836 14.4275 21.9536 14.1496 21.9081 14.0078C21.863 13.9738 21.8231 13.9851 21.7665 14.0078C21.7665 14.0588 21.659 14.2006 21.6307 14.3254C21.5514 14.4388 21.4211 14.6486 21.1606 14.9094C20.9057 15.4198 20.883 15.4709 20.5943 15.9244L20.2716 16.673C20.1866 16.8488 19.9489 17.1322 19.8922 17.2854C19.8355 17.3419 19.6713 17.6028 19.5693 17.8012C19.5184 17.8012 19.4732 17.8012 19.4277 17.8465C19.2408 17.8465 19.0428 17.7444 18.8728 17.699C18.6915 17.5459 18.5216 17.6082 18.3516 17.4211C18.1252 17.3248 17.8986 17.2398 17.9552 17.1546C18.0004 17.0188 18.21 16.3436 18.21 16.1565C18.4308 15.4535 18.4139 15.5102 18.5837 14.8525C18.6687 14.7957 18.8158 14.1833 18.8158 14.1493L18.7084 14.1606C18.6234 14.2967 18.5386 14.3873 18.5386 14.4385C18.4139 14.5406 18.2666 14.8128 18.1252 14.9659C18.0118 15.0793 17.8307 15.2835 17.8307 15.3288C17.6439 15.3288 17.7684 15.3344 17.7175 15.2438C17.791 15.1191 17.8307 15.0793 17.8817 14.9943C18.0513 14.7731 18.1478 14.6086 18.2044 14.4385C18.346 14.2002 18.3857 14.0869 18.4874 13.877C18.595 13.7239 18.6405 13.5993 18.7197 13.5594C18.7648 13.3893 18.9576 13.1681 19.099 13.0265H19.3822C19.4729 13.1172 19.6993 13.2249 19.8353 13.2249C19.8864 13.2702 19.9203 13.3496 19.875 13.4177L19.96 13.293C20.0732 13.2817 20.6564 13.4744 20.4583 13.5878C20.379 13.9223 20.3109 13.9904 20.1751 14.4781C20.1864 14.4838 19.824 15.3457 19.824 15.3457C19.8353 15.357 19.6824 15.8504 19.6824 15.9298C19.5918 16.0715 19.603 16.2814 19.5182 16.4457C19.5182 16.6159 19.9316 16.1396 19.9882 15.9694C20.2261 15.7882 20.3224 15.5386 20.4072 15.4138C20.6169 15.1756 20.7243 14.9828 20.9736 14.7107C21.1717 14.5462 21.3417 14.172 21.4096 14.0472C21.6249 13.7636 21.8854 13.3498 21.9533 13.1683C22.0665 13.0436 22.1912 12.9756 22.2818 12.8848C22.3838 12.7883 22.8876 13.0718 23.2107 13.0265C23.3012 13.0491 23.5392 13.2136 23.6355 13.3044V13.4462C23.5447 13.7241 23.4429 13.9169 23.3466 14.0304C23.3126 14.0757 23.1937 14.0644 23.1881 14.1325C23.1484 14.4614 23.2787 14.4102 23.2221 14.6315C23.1484 14.7733 23.1087 14.8583 22.9671 15.0909C22.9162 15.3744 22.871 15.3744 22.7633 15.692C22.7576 15.692 22.6215 15.9019 22.565 16.0211C22.5652 16.2644 22.8712 15.9014 22.9447 15.7767V15.7767Z" fill="black"/>
<path fill-rule="evenodd" clip-rule="evenodd" d="M30.7172 14.8149C31.057 14.7637 30.8868 14.5879 30.9946 14.5142C31.1192 14.4802 31.1928 14.5426 31.3173 14.4745C31.3908 14.4065 31.6005 14.571 31.5042 14.6447C31.1533 14.7865 31.2268 14.9283 30.9323 15.0416C30.7059 15.0757 30.6096 14.8487 30.7172 14.8149ZM27.4665 13.7487C27.574 13.8394 27.6081 13.9586 27.625 14.1173C27.591 14.2931 27.5571 14.4179 27.4665 14.5313C27.3589 14.2931 27.4777 14.2591 27.4437 14.1116C27.4721 13.9982 27.3986 13.9358 27.4665 13.7487ZM24.193 15.1381C24.3516 14.8545 24.612 14.4349 24.612 14.4349C24.7536 14.3384 24.7819 14.1344 24.9631 13.9358C24.663 14.0605 24.5667 14.1571 24.5667 13.8282C24.6573 13.7318 24.7988 13.4994 24.9404 13.4994C25.0878 13.3973 25.2518 13.0912 25.3425 12.9436C25.4672 12.8189 25.6992 12.694 25.8749 12.4673C26.005 12.4391 26.1692 12.422 26.2939 12.4673C26.6166 12.6374 26.8602 12.9832 26.9961 12.9379C27.3585 13.0684 27.1942 12.5863 27.8398 13.0287C28.089 13.3405 28.1909 13.3008 28.0777 13.5447C28.0777 13.7771 28.2137 14.106 28.0777 14.2478C28.0777 14.6957 27.9871 14.6957 27.9816 14.9963C27.8059 15.3252 28.2195 15.4329 28.4346 15.5237C28.6725 15.5578 28.9387 15.5066 29.0859 15.4329C29.2277 15.3876 29.9694 15.4158 30.1449 15.0928C30.5413 14.985 30.5413 15.1099 30.2525 15.4329C30.0712 15.5747 29.6409 15.7505 29.6409 15.7958C29.3009 15.7562 29.1482 15.9376 28.8706 16.0226C28.7516 15.9886 28.2193 16.0679 28.1684 15.9773C28.0382 16.0399 27.5002 15.7279 27.5002 15.847C27.4097 16.0286 27.0698 16.4083 26.9055 16.5389C26.6903 16.7315 26.09 16.9131 26.0165 16.9584C25.8636 16.9412 25.1897 16.9584 24.7649 16.7883C24.5836 16.5331 24.3119 16.465 24.2836 16.0681C24.1535 15.8128 24.1535 15.5576 24.193 15.1381V15.1381ZM25.8072 15.8128C26.3678 15.9942 26.5658 15.722 26.8152 15.5065C26.9284 15.3818 26.9057 15.3987 26.9057 15.2286C26.8263 14.9678 26.8434 14.7466 26.8321 14.6558C26.787 14.5707 26.6849 14.1568 26.532 13.964C26.4868 14.0094 26.4018 13.9924 26.3112 14.1342C25.9317 14.3894 25.7731 15.0924 25.7336 15.2741C25.6655 15.4952 25.6259 15.6144 25.8072 15.8128V15.8128Z" fill="black"/>
</svg>
