<svg width="167" height="167" viewBox="0 0 167 167" fill="none" xmlns="http://www.w3.org/2000/svg">
<path fill-rule="evenodd" clip-rule="evenodd" d="M10.7605 78.0019C11.1737 76.6997 11.8833 74.48 12.2082 72.8816V72.1417C11.9717 71.9052 11.7351 71.4018 11.4692 71.1653C9.31188 71.1653 6.85829 72.1417 4.90807 73.1181C4.43503 72.645 4.16905 72.3193 4.11013 71.491C3.69687 70.8993 3.66655 70.4843 3.66655 69.7453C3.43002 69.2419 3.19437 68.7385 3.45948 68.236C3.1935 67.7327 2.95698 67.0231 2.72046 66.7563C3.45948 66.0467 5.49894 64.9516 6.44416 64.9516C7.5384 64.5964 8.60231 64.1225 9.78406 63.5905C12.1484 63.0871 13.4194 62.9693 15.6356 62.1107C18.0892 61.7858 19.8912 61.7261 22.2261 61.4003C23.083 61.3708 26.1275 61.4003 27.369 61.4003C28.6105 61.6671 30.2653 61.992 31.0338 62.1107C32.3342 62.6436 33.6936 63.5013 34.6986 64.3304C34.9351 64.5669 36.3828 66.5197 36.3828 66.7571C36.7969 67.7925 37.0031 67.497 37.0031 68.8581L36.8558 70.6039C36.3828 72.4388 36.0874 72.3202 35.4081 73.8588C34.6986 74.8058 34.462 75.0718 33.723 75.8117C33.2205 76.0482 32.984 76.315 32.4815 76.7881C31.7425 76.9362 31.3292 78.0902 30.5313 78.4749C30.2358 79.0961 29.7039 78.8007 29.9699 79.5397C30.2055 79.5397 30.7678 79.6878 31.0338 79.6878C31.5068 80.0431 33.1321 80.4572 33.9595 80.9311C35.2305 81.7299 35.3189 81.3756 36.1463 83.3578C36.8255 83.979 36.855 85.5775 36.8853 86.2871C36.8853 87.4714 36.6193 88.3291 36.3828 89.4831C36.1168 90.0446 35.6438 90.5782 35.4965 91.0807C35.733 90.846 37.3583 89.9571 37.6252 89.7205C37.6252 89.484 37.8608 88.9806 38.0974 88.9806C38.2455 88.3005 38.4517 88.1515 38.5999 87.7963H39.4273C39.4273 88.8914 38.9248 89.5117 38.8364 90.4596C38.4517 91.2298 37.6538 92.5614 37.2994 93.4191C36.5015 94.5445 35.0234 96.1421 34.5209 96.8526C33.1313 97.6211 30.9454 100.166 27.2208 101.113C26.2158 101.379 23.822 102.326 22.7876 102.564C21.2506 103.334 18.4427 104.043 16.8468 104.161L12.9455 105.612C12.2368 105.583 11.8227 105.523 10.9953 105.375C8.86743 105.05 8.18732 104.37 7.35993 103.896C6.85742 104.162 3.93166 103.186 3.45861 102.683C3.19264 102.683 2.95611 102.683 2.45361 102.447C2.45361 100.849 3.04448 101.204 3.19264 99.5176C3.96112 98.2734 4.37438 96.4393 4.67068 95.1077C5.55699 93.0656 5.85329 90.6692 6.1184 89.2475C6.76819 88.4184 7.56699 86.2593 7.59645 85.5792C8.09895 85.3115 8.9558 82.4715 9.07449 81.9092C9.63764 80.7838 10.4356 79.2157 10.7605 78.0019V78.0019ZM18.09 79.4522C18.09 80.3697 17.5875 81.0507 17.5875 81.9682C16.8191 82.767 15.4008 85.9327 15.134 86.9992C14.7198 88.3595 14.3655 89.9588 13.863 91.4377C13.3605 93.1245 12.8874 94.8123 12.6215 96.4991C12.3555 96.973 12.0011 97.5639 12.0011 98.0369L12.4742 98.5411C15.873 98.0958 14.602 97.6531 16.7593 97.297C18.0303 96.6455 18.5328 97.0605 20.2759 95.8467C20.9855 95.9654 24.3843 94.3964 24.4138 94.3964C24.9163 94.308 25.9498 93.7752 26.8076 92.9175C27.9018 92.2945 29.9404 91.2306 30.2956 89.9865C31.3006 88.7736 31.3006 87.7972 31.0346 87.0573C31.1525 85.4597 29.7931 85.1045 29.0541 84.3637C28.0491 84.3637 27.3993 84.0977 26.3943 84.0977C24.0594 84.1566 23.8827 84.3343 22.7304 84.6002C22.2279 84.8368 20.5133 85.5784 19.7743 85.5784C19.7743 85.3418 19.3012 84.8376 19.3012 84.8376C19.2423 83.3587 19.2129 83.2998 18.9469 82.0271C19.4191 81.7906 19.5378 81.6719 20.0403 81.1685C20.7498 80.9016 22.227 80.3108 23.0249 80.0145L24.1772 79.4817C24.4138 79.2451 25.0644 78.8007 25.2117 78.4749C26.0096 77.8243 26.2756 77.5877 26.7478 76.8175C27.842 75.693 28.4329 74.4792 28.9051 73.2073C29.8217 71.8757 29.0238 70.3076 28.8167 69.7158C27.8117 69.0938 27.2797 68.651 26.0088 68.5609C23.822 68.0879 24.4129 68.0576 21.7826 68.295C20.541 68.295 19.2995 68.9751 18.3248 68.7385C15.6053 69.449 14.8377 70.1291 14.6895 69.9523C14.4538 69.9523 13.7148 70.4548 13.448 70.6922L15.1028 71.0769C15.8123 70.9582 16.1078 71.5794 16.8468 71.5794C18.8862 72.3193 18.5024 71.9641 19.536 73.1484C19.536 73.6223 19.4477 74.1248 19.4477 74.3613C19.2727 76.4632 19.0656 77.3218 18.09 79.4522V79.4522ZM43.7228 87.2843C44.3726 85.4787 44.6689 84.5326 45.1705 82.6682C44.668 83.201 44.0771 83.7936 43.0132 84.8879C42.0671 85.8929 40.8854 86.722 40.0874 87.2843L39.526 87.137C40.7381 85.8339 41.3879 85.2414 41.6833 84.829C42.1564 84.0882 43.5157 82.1648 44.2253 81.6909C44.2253 81.0992 45.5552 79.8559 45.673 78.9982C46.7664 78.0513 47.1207 77.3997 47.1207 76.7785C48.2435 75.7727 48.4212 74.6187 49.6921 74.6187C50.9337 74.7659 51.9378 75.0622 53.9772 75.3282C54.8341 76.0681 54.2138 75.861 53.7113 77.5184C52.5581 79.3829 53.0615 79.5605 52.1449 81.3955C52.1449 81.632 51.8789 82.4906 51.8789 82.4906C52.4992 81.898 55.1893 78.2289 55.1893 78.2583C56.4308 76.8375 58.6176 74.2634 59.3566 74.4705C60.5098 74.707 62.0458 75.0622 63.2874 76.0681C63.2874 76.3046 63.0214 77.0151 63.0214 77.2819C63.1106 77.489 62.5483 79.3534 62.2529 80.8029C62.4886 81.6017 62.7849 81.6615 64.2924 79.7078C65.2385 78.701 67.3368 76.8071 67.6617 76.0378C68.7265 74.6178 69.8485 73.1086 70.824 72.1313C71.3265 72.1313 72.3021 72.3678 72.7742 72.3678C73.0108 72.6338 73.2767 72.6338 73.5133 72.6338C73.9854 73.1077 75.4635 72.8703 76.439 73.8476V75.3274C75.8482 77.2507 75.3457 78.8492 74.9904 79.7078C74.163 81.7195 73.3062 83.999 72.7153 86.041C72.3904 87.2539 71.7996 89.4138 71.3256 90.4492C71.3256 90.4492 71.7987 91.4273 72.0352 91.4273L73.0108 90.9231C74.2523 90.4795 74.9021 89.1193 74.9904 88.9702C75.4635 88.7337 75.7 88.4963 75.966 87.9938C77.2959 87.2236 81.0196 80.1219 81.5221 78.909C82.2611 76.9562 83.1777 74.5294 83.9168 72.872C84.064 72.1321 85.1583 72.5757 85.8089 72.665C87.7002 72.872 89.5907 73.2273 89.148 73.7601L88.1733 77.5184C87.5521 78.7617 86.2517 82.786 85.9865 84.1177C84.8923 85.8045 84.7156 86.8996 83.7695 88.9711V89.711C85.1591 88.8836 86.3114 87.137 87.0496 86.19C88.292 85.0074 88.9114 84.4434 88.9114 84.1185C90.0932 82.8458 91.0982 81.7507 91.0982 81.1893C91.482 80.893 92.0737 80.7448 92.0737 80.7448C92.3094 81.2482 92.2808 81.5436 92.0737 81.9283C91.5418 83.201 91.0089 83.8811 90.3895 85.2422C90.2708 85.9241 89.5907 86.9888 89.089 87.9358C88.5571 88.5873 87.4048 90.2741 86.4587 91.8128C85.9268 92.4054 84.3309 94.2699 84.006 94.5948C82.7939 94.5948 81.1686 93.8549 79.6906 93.7657C78.5383 93.0552 78.6864 93.6184 77.4154 92.642C77.6511 92.1681 77.5922 91.429 77.9179 90.6874C78.3901 90.0662 78.7748 89.4745 78.8926 88.7346C78.1536 89.2371 74.9913 92.642 74.9913 92.9071C74.4888 92.6411 70.824 95.8363 70.085 96.0728C68.8738 95.5703 67.3958 95.3329 66.6862 94.12C65.682 94.5939 64.7065 93.6175 63.9969 92.9071C64.2335 92.4046 64.3816 91.073 64.7065 89.9475C65.1795 88.6748 65.8293 86.6917 66.1845 85.5974C66.1845 85.5385 67.1592 82.728 66.9825 82.9342L67.5734 80.7448C67.0709 80.9814 65.3866 82.7869 65.0903 83.3483C65.0903 83.3483 62.0164 86.0713 62.0164 86.5756C61.5442 87.4333 61.2479 87.344 60.5981 87.5217C60.0956 87.5217 59.0906 87.2851 58.6176 87.0478L56.2238 86.3391L56.313 85.6286C56.313 84.2069 57.0226 83.0832 57.0226 81.6927C56.5495 82.196 55.3669 83.2028 54.7761 83.9418C52.0868 86.1909 52.4706 85.2431 50.7864 87.5814C50.4909 88.5293 49.9884 89.5343 49.4565 91.2211C49.4565 91.2211 47.8606 95.0982 48.0971 95.8372C47.6535 96.9028 47.1519 97.939 46.7672 99.0047C45.1714 98.9458 44.3136 98.9457 43.2497 98.7681C42.7472 99.0047 41.3879 98.5004 40.5899 98.2942C40.8265 96.7564 41.0335 96.6966 41.1808 95.6007C41.3584 95.2168 42.3045 91.6664 42.2751 91.5174C43.1319 89.4147 43.2497 88.7935 43.7228 87.2843V87.2843ZM119.742 82.3346C121.368 80.7067 120.481 81.5653 122.609 78.9904C124.531 77.2447 124.885 76.7118 125.919 75.4989C126.865 74.9072 126.924 74.1673 127.575 74.7001C127.929 74.9072 126.805 76.8305 126.718 76.6529C125.919 77.541 125.181 78.7539 124.087 80.3524C123.555 81.0628 123.112 81.8911 122.048 83.3414C121.279 84.1402 120.127 85.8868 119.654 86.7159C117.319 89.2613 117.26 90.6216 116.285 90.9179C115.545 90.9179 115.073 90.6813 114.57 90.6813C113.624 89.2024 113.092 89.9415 111.881 89.9415C111.112 89.4676 109.93 88.4911 109.458 88.4911C109.458 88.2546 109.191 87.7513 109.191 87.5147C109.723 86.4794 109.426 85.6208 109.93 84.5855C110.315 83.3726 110.345 83.2539 110.816 82.3658C111.644 80.4425 111.762 80.2354 112.146 79.4661C112.53 78.5191 112.472 78.1344 113.18 76.8028C113.683 75.2936 114.57 73.8432 114.333 73.1034C114.097 72.9258 113.889 72.9847 113.594 73.1034C113.594 73.3693 113.032 74.1092 112.885 74.7607C112.471 75.3525 111.791 76.4476 110.431 77.8087C109.102 80.4719 108.983 80.7388 107.476 83.1057L105.792 87.0122C105.348 87.9297 104.108 89.4086 103.812 90.2083C103.516 90.5029 102.659 91.8648 102.127 92.9001C101.861 92.9001 101.626 92.9001 101.388 93.1367C100.413 93.1367 99.379 92.6038 98.4919 92.3665C97.5458 91.5677 96.6595 91.8926 95.7723 90.9161C94.5906 90.4136 93.408 89.97 93.7034 89.5256C93.939 88.8169 95.0333 85.2933 95.0333 84.3169C96.1856 80.6478 96.0972 80.9441 96.9835 77.5115C97.4271 77.2152 98.1947 74.0191 98.1947 73.8415L97.6342 73.9004C97.1906 74.6109 96.7478 75.0839 96.7478 75.3508C96.0972 75.8836 95.3287 77.3044 94.5906 78.1032C93.9988 78.695 93.0536 79.7606 93.0536 79.9971C92.0789 79.9971 92.7287 80.0266 92.4627 79.5536C92.8465 78.9029 93.0536 78.695 93.3196 78.2514C94.205 77.0974 94.7084 76.2388 95.0038 75.3508C95.7428 74.1075 95.9499 73.5158 96.481 72.4206C97.0424 71.6218 97.2798 70.9712 97.6931 70.7633C97.9287 69.8752 98.9346 68.7212 99.6727 67.9822H101.151C101.624 68.4552 102.806 69.0175 103.515 69.0175C103.782 69.254 103.959 69.6682 103.722 70.0234L104.166 69.3727C104.757 69.3138 107.8 70.3197 106.767 70.9114C106.353 72.6572 105.997 73.0124 105.289 75.5578C105.348 75.5873 103.456 80.0855 103.456 80.0855C103.515 80.1444 102.717 82.7193 102.717 83.1334C102.244 83.8733 102.303 84.9684 101.86 85.8262C101.86 86.7142 104.018 84.2285 104.313 83.3405C105.555 82.3944 106.057 81.0923 106.5 80.4407C107.594 79.1975 108.155 78.1916 109.456 76.7716C110.49 75.913 111.377 73.9602 111.731 73.3087C112.855 71.8289 114.214 69.669 114.568 68.7221C115.159 68.0714 115.81 67.7162 116.283 67.2423C116.815 66.7389 119.444 68.2187 121.13 67.9822C121.603 68.1 122.845 68.9586 123.347 69.4325V70.1724C122.874 71.6227 122.342 72.6286 121.84 73.2212C121.662 73.4577 121.042 73.3988 121.013 73.754C120.805 75.4703 121.486 75.2035 121.19 76.3584C120.805 77.0982 120.598 77.5418 119.859 78.7556C119.593 80.2354 119.358 80.2354 118.795 81.8928C118.766 81.8928 118.056 82.9879 117.761 83.61C117.762 84.8801 119.359 82.9853 119.742 82.3346V82.3346Z" fill="black"/>
<path fill-rule="evenodd" clip-rule="evenodd" d="M160.307 77.3148C162.08 77.0479 161.192 76.1304 161.754 75.7458C162.405 75.5682 162.789 75.8939 163.439 75.5387C163.822 75.1835 164.917 76.0421 164.414 76.4267C162.583 77.1666 162.966 77.9065 161.429 78.4983C160.248 78.6759 159.745 77.4915 160.307 77.3148ZM143.342 71.7509C143.903 72.2239 144.081 72.846 144.169 73.6743C143.992 74.5918 143.815 75.2433 143.342 75.835C142.781 74.5918 143.401 74.4141 143.223 73.6448C143.371 73.0531 142.988 72.7273 143.342 71.7509ZM126.259 79.0016C127.086 77.5218 128.445 75.3316 128.445 75.3316C129.184 74.8283 129.332 73.7635 130.278 72.7273C128.711 73.378 128.209 73.8822 128.209 72.1659C128.682 71.6625 129.42 70.4496 130.159 70.4496C130.928 69.9168 131.784 68.3192 132.257 67.549C132.908 66.8983 134.119 66.2468 135.036 65.0633C135.715 64.916 136.572 64.8268 137.223 65.0633C138.907 65.9513 140.178 67.756 140.887 67.5195C142.779 68.2005 141.921 65.6845 145.29 67.9934C146.591 69.6205 147.123 69.4134 146.532 70.6861C146.532 71.899 147.242 73.6153 146.532 74.3552C146.532 76.6927 146.059 76.6927 146.03 78.2617C145.114 79.978 147.272 80.5403 148.395 81.0142C149.636 81.1918 151.025 80.925 151.793 80.5403C152.533 80.3038 156.404 80.4511 157.32 78.7651C159.389 78.2028 159.389 78.8543 157.882 80.5403C156.935 81.2802 154.69 82.1977 154.69 82.4342C152.915 82.2272 152.118 83.1741 150.67 83.6177C150.049 83.4401 147.271 83.8542 147.005 83.3812C146.326 83.7078 143.518 82.0799 143.518 82.7011C143.046 83.6489 141.272 85.6303 140.414 86.3121C139.292 87.3171 136.159 88.265 135.775 88.5015C134.977 88.4114 131.46 88.5015 129.243 87.6134C128.297 86.2818 126.879 85.9266 126.732 83.8551C126.052 82.5226 126.052 81.191 126.259 79.0016V79.0016ZM134.682 82.5226C137.608 83.4696 138.642 82.0487 139.943 80.9241C140.534 80.2735 140.415 80.3618 140.415 79.4738C140.001 78.1127 140.09 76.9587 140.032 76.4848C139.796 76.0403 139.263 73.8805 138.465 72.8746C138.229 73.1111 137.786 73.0227 137.313 73.7626C135.332 75.0943 134.505 78.7634 134.299 79.7112C133.943 80.8652 133.736 81.4873 134.682 82.5226V82.5226Z" fill="black"/>
</svg>
